<svg xmlns="http://www.w3.org/2000/svg" viewBox="0 0 299 56" width="299" height="56">
    <path fill="#003770" d="M36.4,35.6c-1,3-3.3,5.5-6.1,6.9c-3.6,1.7-7.6,2.6-11.6,2.4c-4.6,0-7.8-0.8-9.5-2.3 S7,38.4,7.8,34.6l12.4-1.5c-0.6,3.3-0.3,5,0.8,5c1,0,1.9-0.7,2.1-1.7c0.4-1,0.3-2.1-0.3-3c-1-1.3-2.2-2.3-3.7-3.1 c-2.8-1.7-4.7-3.3-5.6-4.9c-1-1.8-1.1-3.9-0.3-5.8c2.1-6.1,7.9-9.2,17.3-9.2c4.4,0,7.4,0.8,9.1,2.3s2.2,4,1.6,7.2l-12,1.5 c0.5-2.8,0.1-4.2-1-4.2c-0.8,0-1.6,0.5-1.8,1.3c-0.3,0.7-0.1,1.5,0.4,2.1c1,1.1,2.2,2.1,3.5,2.8c3.1,1.9,5.1,3.7,5.9,5.3 C37.3,30.5,37.3,32.8,36.4,35.6z M59.3,44.4H35.5L46.8,11h23.7l-2.5,7.4H58l-1.6,4.7h8.2l-2.5,7.3h-8.2L51.6,37h10.2 L59.3,44.4L59.3,44.4z M92.6,35.6c-1,3-3.3,5.5-6.1,6.9c-3.6,1.7-7.6,2.6-11.6,2.4c-4.6,0-7.8-0.8-9.5-2.3c-1.7-1.5-2.2-4.2-1.4-8.1 l12.4-1.5c-0.6,3.3-0.3,5,0.8,5c1,0,1.9-0.7,2.1-1.7c0.4-1,0.3-2.1-0.3-3c-1-1.3-2.2-2.3-3.7-3.1c-2.8-1.7-4.7-3.3-5.6-4.9 c-1-1.8-1.1-3.9-0.3-5.8c2.1-6.1,7.9-9.2,17.3-9.2c4.4,0,7.4,0.8,9.1,2.3c1.7,1.6,2.2,4,1.6,7.2l-12,1.5c0.5-2.8,0.1-4.2-1-4.2 c-0.8,0-1.6,0.5-1.8,1.3c-0.3,0.7-0.1,1.5,0.4,2.1c1,1.1,2.2,2.1,3.5,2.8c3.1,1.9,5.1,3.7,5.9,5.3 C93.5,30.5,93.5,32.8,92.6,35.6 L92.6,35.6z M126,18.4h-6.2l-8.8,26H97.3l8.8-26h-6.2l2.5-7.4h26.1L126,18.4L126,18.4z" />
    <path fill="#003770" d="M169.8,35.6c-1,3-3.3,5.5-6.1,6.9c-3.6,1.7-7.6,2.6-11.6,2.4c-4.6,0-7.8-0.8-9.5-2.3 s-2.2-4.2-1.4-8.1l12.4-1.5c-0.6,3.3-0.3,5,0.8,5c1,0,1.9-0.7,2.1-1.7c0.4-1,0.3-2.1-0.3-3c-1-1.3-2.2-2.3-3.7-3.1 c-2.8-1.7-4.7-3.3-5.6-4.9c-1-1.8-1.1-3.9-0.3-5.8c2.1-6.1,7.9-9.2,17.3-9.2c4.4,0,7.4,0.8,9.1,2.3s2.2,4,1.6,7.2l-12,1.5 c0.5-2.8,0.1-4.2-1-4.2c-0.8,0-1.6,0.5-1.8,1.3c-0.3,0.7-0.1,1.5,0.4,2.1c1,1.1,2.2,2.1,3.5,2.8c3.1,1.9,5.1,3.7,5.9,5.3 C170.7,30.5,170.7,32.8,169.8,35.6 L169.8,35.6z M192.7,44.4h-23.8L180.3,11H204l-2.5,7.4h-10.1l-1.6,4.7h8.2l-2.5,7.3h-8.2l-2.2,6.6 h10.2 L192.7,44.4 L192.7,44.4z M224.3,44.4h-10.8l-0.9-6.2c-0.5-2.8-0.7-5.6-0.8-8.4c-0.5,1.8-1.3,4.5-2.5,8l-2.2,6.6h-12.3 L206.1,11 h11.5 l0.7,4.1c0.5,3,0.9,6.1,1,9.1c0.7-3,1.6-5.9,2.6-8.7l1.5-4.5 h12.3 L224.3,44.4 L224.3,44.4z M258.8,44.4 h-13.4 l0.9-5.1 h-5.3 l-2.6,5.1 h-13 L244.6,11 h17.7 L258.8,44.4 L258.8,44.4z M247.4,32.7 l0.4-1.7 c0.3-1.8,1.2-5.7,2.7-11.7 c-1.5,3.5-3.2,7.4-5.3,11.7 l-0.8,1.7 H247.4z M289.6,18.4 h-6.2 l-8.8,26 h-13.7 l8.8, -26 h-6.2 L266,11 h26.1 L289.6,18.4 L289.6,18.4z" />
</svg>